<svg preserveAspectRatio="none" overflow="visible" style="display: block;" width="173.44" height="173.44" viewBox="0 0 173.44 173.44" fill="none" xmlns="http://www.w3.org/2000/svg">
<path id="Vector" d="M86.6434 4.99984C86.6434 4.31752 86.7831 3.64241 87.0538 3.01609C87.3245 2.38977 87.7206 1.82548 88.2176 1.35798C88.7146 0.89048 89.302 0.529654 89.9437 0.297717C90.5854 0.065781 91.2678 -0.0323558 91.9488 0.00934788C108.632 1.03103 124.666 6.84824 138.124 16.762C151.581 26.6758 161.89 40.2645 167.811 55.8953C173.732 71.5262 175.014 88.5343 171.503 104.876C167.992 121.218 159.837 136.199 148.018 148.018C136.199 159.837 121.218 167.992 104.876 171.503C88.5343 175.014 71.5262 173.732 55.8953 167.811C40.2645 161.89 26.6758 151.581 16.762 138.124C6.84824 124.666 1.03103 108.632 0.00934782 91.9488C-0.0323559 91.2678 0.0657819 90.5854 0.297718 89.9437C0.529655 89.302 0.890481 88.7146 1.35798 88.2176C1.82548 87.7206 2.38977 87.3245 3.01609 87.0538C3.64241 86.7831 4.31752 86.6434 4.99984 86.6434C6.27296 86.6434 7.49812 87.1291 8.42545 88.0014C9.35278 88.8737 9.91242 90.0669 9.99023 91.3376C10.8942 106.099 16.0412 120.286 24.8129 132.193C33.5846 144.1 45.6077 153.221 59.4378 158.46C73.2678 163.699 88.3165 164.833 102.776 161.727C117.235 158.62 130.489 151.404 140.947 140.947C151.404 130.489 158.62 117.235 161.727 102.776C164.833 88.3165 163.699 73.2678 158.46 59.4378C153.221 45.6077 144.1 33.5846 132.193 24.8129C120.286 16.0412 106.099 10.8942 91.3376 9.99023C90.0669 9.91242 88.8737 9.35278 88.0014 8.42545C87.1291 7.49812 86.6434 6.27296 86.6434 4.99984Z" fill="#F3F4F6"/>
</svg>
